<?xml version="1.0" encoding="UTF-8"?>
<svg width="20px" height="20px" viewBox="0 0 20 20" version="1.1" xmlns="http://www.w3.org/2000/svg" xmlns:xlink="http://www.w3.org/1999/xlink">
    <title>calendar [#1197]</title>
    <g id="Icons" stroke="none" stroke-width="1" fill="none" fill-rule="evenodd">
        <path d="M11,11 L11,14 C11,14.552 10.552,15 10,15 C9.448,15 9,14.552 9,14 L9,12 C9,11.448 8.552,11 8,11 C7.448,11 7,10.552 7,10 C7,9.448 7.448,9 8,9 L9,9 C10.105,9 11,9.895 11,11 L11,11 Z M18,17 C18,17.552 17.552,18 17,18 L3,18 C2.448,18 2,17.552 2,17 L2,7 C2,6.448 2.448,6 3,6 L17,6 C17.552,6 18,6.448 18,7 L18,17 Z M18,2 L18,1 C18,0.448 17.552,0 17,0 C16.448,0 16,0.448 16,1 L16,2 L11,2 L11,1 C11,0.448 10.552,0 10,0 C9.448,0 9,0.448 9,1 L9,2 L4,2 L4,1 C4,0.448 3.552,0 3,0 C2.448,0 2,0.448 2,1 L2,2 C0.895,2 0,2.895 0,4 L0,18 C0,19.104 0.895,20 2,20 L18,20 C19.105,20 20,19.104 20,18 L20,4 C20,2.895 19.105,2 18,2 L18,2 Z" id="calendar-[#1197]" fill="#FFFFFF"></path>
    </g>
</svg>