<?xml version="1.0" encoding="UTF-8"?>
<svg width="20px" height="20px" viewBox="0 0 20 20" version="1.1" xmlns="http://www.w3.org/2000/svg" xmlns:xlink="http://www.w3.org/1999/xlink">
    <title>calendar [#1197]</title>
    <g id="Web" stroke="none" stroke-width="1" fill="none" fill-rule="evenodd">
        <g id="Artboard" transform="translate(-161.000000, -537.000000)" fill="#3F327A">
            <path d="M172,548 L172,551 C172,551.552 171.552,552 171,552 C170.448,552 170,551.552 170,551 L170,549 C170,548.448 169.552,548 169,548 C168.448,548 168,547.552 168,547 C168,546.448 168.448,546 169,546 L170,546 C171.105,546 172,546.895 172,548 L172,548 Z M179,554 C179,554.552 178.552,555 178,555 L164,555 C163.448,555 163,554.552 163,554 L163,544 C163,543.448 163.448,543 164,543 L178,543 C178.552,543 179,543.448 179,544 L179,554 Z M179,539 L179,538 C179,537.448 178.552,537 178,537 C177.448,537 177,537.448 177,538 L177,539 L172,539 L172,538 C172,537.448 171.552,537 171,537 C170.448,537 170,537.448 170,538 L170,539 L165,539 L165,538 C165,537.448 164.552,537 164,537 C163.448,537 163,537.448 163,538 L163,539 C161.895,539 161,539.895 161,541 L161,555 C161,556.104 161.895,557 163,557 L179,557 C180.105,557 181,556.104 181,555 L181,541 C181,539.895 180.105,539 179,539 L179,539 Z" id="calendar-[#1197]"></path>
        </g>
    </g>
</svg>