<?xml version="1.0" encoding="UTF-8"?>
<svg width="14px" height="10px" viewBox="0 0 14 10" version="1.1" xmlns="http://www.w3.org/2000/svg" xmlns:xlink="http://www.w3.org/1999/xlink">
    <!-- Generator: Sketch 63.1 (92452) - https://sketch.com -->
    <title>icon-salary</title>
    <desc>Created with Sketch.</desc>
    <g id="Web" stroke="none" stroke-width="1" fill="none" fill-rule="evenodd">
        <g id="Job-Board---Post" transform="translate(-450.000000, -412.000000)" fill="#3F327A">
            <g id="Group-3-Copy" transform="translate(438.000000, 401.000000)">
                <path d="M13,11 L13,13 L12,13 L12,21 L24,21 L24,20 L25,20 L26,20 L26,12 L26,11 L14,11 L13,11 Z M18,19 C16.895,19 16,18.105 16,17 C16,15.895 16.895,15 18,15 C19.105,15 20,15.895 20,17 C20,18.105 19.105,19 18,19 Z M25,19 L24,19 L24,13 L14,13 L14,12 L25,12 L25,19 Z" id="icon-salary"></path>
            </g>
        </g>
    </g>
</svg>