<?xml version="1.0" encoding="UTF-8"?>
<svg width="14px" height="12px" viewBox="0 0 14 12" version="1.1" xmlns="http://www.w3.org/2000/svg" xmlns:xlink="http://www.w3.org/1999/xlink">
    <!-- Generator: Sketch 63.1 (92452) - https://sketch.com -->
    <title>icon-twitter</title>
    <desc>Created with Sketch.</desc>
    <g id="Web" stroke="none" stroke-width="1" fill="none" fill-rule="evenodd">
        <g id="Job-Board---Post" transform="translate(-777.000000, -1357.000000)" fill="#FFFFFF" fill-rule="nonzero">
            <g id="Group-3-Copy-7" transform="translate(765.000000, 1347.000000)">
                <g id="iconfinder_4_939755" transform="translate(12.000000, 10.000000)">
                    <path d="M14,1.776 C13.4866667,2.016 12.6933333,2.304 12.1333333,2.4 C12.74,2.016 13.3,1.152 13.5333333,0.48 C13.0666667,0.768 12.5533333,1.152 12.04,1.344 L11.6666667,0.96 C11.1533333,0.384 10.64,0 9.8,0 C8.21333333,0 7,1.248 7,2.88 C7,3.072 7,3.216 7.04666667,3.36 L7,3.36 C4.2,3.36 2.33333333,2.736 0.933333333,0.96 C0.7,1.392 0.466666667,1.872 0.466666667,2.4 C0.466666667,3.408 1.07333333,4.272 1.86666667,4.8 C1.4,4.8 0.84,4.56 0.466666667,4.32 C0.466666667,5.76 2.42666667,7.392 3.73333333,7.68 C3.26666667,8.16 1.58666667,7.728 1.4,7.68 C1.77333333,8.832 2.94,9.552 4.2,9.6 C3.22,10.368 2.05333333,10.8 0.7,10.8 C0.466666667,10.8 0.233333333,10.8 0,10.752 C1.26,11.568 3.03333333,12 4.66666667,12 C9.94,12 12.6,7.728 12.6,3.84 C12.6,3.696 12.6,3.504 12.6,3.36 C13.16,2.928 13.6266667,2.352 14,1.776 Z" id="icon-twitter"></path>
                </g>
            </g>
        </g>
    </g>
</svg>