<?xml version="1.0" encoding="UTF-8"?>
<svg width="14px" height="14px" viewBox="0 0 14 14" version="1.1" xmlns="http://www.w3.org/2000/svg" xmlns:xlink="http://www.w3.org/1999/xlink">
    <!-- Generator: Sketch 63.1 (92452) - https://sketch.com -->
    <title>icon-facebook</title>
    <desc>Created with Sketch.</desc>
    <g id="Web" stroke="none" stroke-width="1" fill="none" fill-rule="evenodd">
        <g id="Job-Board---Post" transform="translate(-689.000000, -1356.000000)" fill="#FFFFFF">
            <g id="Group-3-Copy-6" transform="translate(678.000000, 1347.000000)">
                <g id="iconfinder_2_-_Facebook_1775160" transform="translate(11.000000, 9.000000)">
                    <path d="M12,0 C13.1045695,-2.02906125e-16 14,0.8954305 14,2 L14,12 C14,13.1045695 13.1045695,14 12,14 L7.978,14 L7.97885999,9.98697299 L9.75864172,9.98697138 L9.99490102,7.52445641 L7.97885674,7.52445641 L7.97885674,6.07334796 C7.97885674,5.52973162 8.31306857,5.40180229 8.55115985,5.40180229 L8.55115985,5.40180229 L10,5.40180229 L10,3.0092874 L8.00330062,3 C5.78583186,3 5.28245124,4.78648929 5.28245124,5.92677293 L5.28245124,5.92677293 L5.28245124,7.52154952 L4,7.52154952 L4,9.98697299 L5.28245124,9.98697299 L5.282,14 L2,14 C0.8954305,14 1.3527075e-16,13.1045695 0,12 L0,2 C-1.3527075e-16,0.8954305 0.8954305,2.02906125e-16 2,0 L12,0 Z" id="icon-facebook"></path>
                </g>
            </g>
        </g>
    </g>
</svg>