<?xml version="1.0" encoding="UTF-8"?>
<svg width="20px" height="16px" viewBox="0 0 20 16" version="1.1" xmlns="http://www.w3.org/2000/svg" xmlns:xlink="http://www.w3.org/1999/xlink">
    <title>love [#1489] copy</title>
    <g id="Icons" stroke="none" stroke-width="1" fill="none" fill-rule="evenodd">
        <path d="M11.9933186,13.3489915 C11.4453186,13.8148173 10.7413186,14.0717212 10.0103186,14.0717212 C9.28031856,14.0717212 8.57431856,13.8158169 8.00431856,13.3349968 C4.41031856,10.3071293 2.12231856,8.70073009 2.00331856,5.40596241 C1.87831856,1.91926651 5.69831856,0.644743207 8.04031856,3.50967166 C8.51431856,4.08845518 9.22631856,4.42033105 9.99431856,4.42033105 C10.7693186,4.42033105 11.4863186,4.08445668 11.9613186,3.49867577 C14.2523186,0.679730121 18.1743186,1.88028109 17.9953186,5.50792427 C17.8353186,8.73471738 15.4593186,10.4010941 11.9933186,13.3489915 M10.3873186,2.31012032 C10.2893186,2.43107508 10.1413186,2.49205227 9.99431856,2.49205227 C9.85031856,2.49205227 9.70731856,2.43307433 9.61131856,2.31611808 C6.06831856,-2.01726114 -0.187681436,0.140931644 0.00431856424,5.47293736 C0.157318564,9.71635022 3.16531856,11.8195636 6.70731856,14.8034475 C7.65431856,15.6011492 8.83231856,16 10.0103186,16 C11.1913186,16 12.3713186,15.5991499 13.3163186,14.7954505 C16.8193186,11.8155651 19.7893186,9.72634649 19.9923186,5.59889025 C20.2623186,0.147929027 13.9213186,-2.04125217 10.3873186,2.31012032" id="love-[#1489]-copy" fill="#FFFFFF"></path>
    </g>
</svg>