<?xml version="1.0" encoding="UTF-8"?>
<svg width="20px" height="20px" viewBox="0 0 20 20" version="1.1" xmlns="http://www.w3.org/2000/svg" xmlns:xlink="http://www.w3.org/1999/xlink">
    <title>message [#1578]</title>
    <g id="Web" stroke="none" stroke-width="1" fill="none" fill-rule="evenodd">
        <g id="Artboard" transform="translate(-1101.000000, -537.000000)" fill="#3F327A">
            <g id="Group-28" transform="translate(116.000000, 492.000000)">
                <path d="M997.344,45 L992.657,45 C988.428,45 985,48.2607554 985,52.4742253 C985,56.6876952 988.428,59.9484506 992.657,59.9484506 L996.907,59.9484506 L1000.885,64.1708896 C1002.643,65.922848 1005,64.6382778 1005,62.7288624 L1005,52.8339847 C1005,48.6195182 1001.546,45 997.318,45 L997.344,45 Z M997.172,47.0947762 C1000.291,47.0947762 1003,49.7257035 1003,52.8339847 L1003,62.7288624 C1003,63.0936046 1002.564,63.2829516 1002.299,63.0188623 C997.718,58.1566296 998.493,59.0445676 997.735,57.9553238 L992.657,57.9553238 C989.538,57.9553238 987,55.5825065 987,52.4742253 C987,49.3659441 989.538,46.9931267 992.657,46.9931267 L997,46.9931267 L997.172,47.0947762 Z" id="message-[#1578]"></path>
            </g>
        </g>
    </g>
</svg>