<?xml version="1.0" encoding="UTF-8"?>
<svg width="16px" height="20px" viewBox="0 0 16 20" version="1.1" xmlns="http://www.w3.org/2000/svg" xmlns:xlink="http://www.w3.org/1999/xlink">
    <title>microphone [#933]</title>
    <g id="Web" stroke="none" stroke-width="1" fill="none" fill-rule="evenodd">
        <g id="Artboard" transform="translate(-873.000000, -537.000000)" fill="#000000">
            <path d="M882,552.437 L882,555 L885,555 L885,557 L877,557 L877,555 L880,555 L880,552.437 C876.36,552.028 873,549 873,545 L875,545 C875,553 887,553 887,545 L889,545 C889,549 885.64,552.028 882,552.437 L882,552.437 Z M879,539 L883,539 L883,544.393 C883,545.389 882.319,546.313 881.336,546.473 C880.083,546.677 879,545.715 879,544.5 L879,539 Z M881.393,548.481 C883.473,548.283 885,546.417 885,544.328 L885,537 L877,537 L877,544.5 C877,546.839 879.007,548.709 881.393,548.481 L881.393,548.481 Z" id="microphone-[#933]"></path>
        </g>
    </g>
</svg>