<?xml version="1.0" encoding="UTF-8"?>
<svg width="20px" height="20px" viewBox="0 0 20 20" version="1.1" xmlns="http://www.w3.org/2000/svg" xmlns:xlink="http://www.w3.org/1999/xlink">
    <title>search_right [#1505] copy</title>
    <g id="Icons" stroke="none" stroke-width="1" fill="none" fill-rule="evenodd">
        <path d="M4.2453,14.3429 L5.6593,15.7569 L1.4173,19.9999 L0.0023,18.5859 L4.2453,14.3429 Z M12.0023,13.9999 C8.6943,13.9999 6.0023,11.3079 6.0023,7.9999 C6.0023,4.6909 8.6943,1.9999 12.0023,1.9999 C15.3113,1.9999 18.0023,4.6909 18.0023,7.9999 C18.0023,11.3079 15.3113,13.9999 12.0023,13.9999 L12.0023,13.9999 Z M12.0023,-0.0001 C7.5843,-0.0001 4.0023,3.5819 4.0023,7.9999 C4.0023,12.4179 7.5843,15.9999 12.0023,15.9999 C16.4213,15.9999 20.0023,12.4179 20.0023,7.9999 C20.0023,3.5819 16.4213,-0.0001 12.0023,-0.0001 L12.0023,-0.0001 Z" id="search_right-[#1505]-copy" fill="#FFFFFF"></path>
    </g>
</svg>